<?xml version="1.0" encoding="UTF-8"?>
<svg id="_레이어_2" data-name="레이어 2" xmlns="http://www.w3.org/2000/svg" viewBox="0 0 305.3 89.31">
  <defs>
    <style>
      .cls-1 {
        fill: #231815;
      }

      .cls-1, .cls-2 {
        stroke-width: 0px;
      }

      .cls-2 {
        fill: #fff;
      }
    </style>
  </defs>
  <g id="_레이어_1-2" data-name="레이어 1">
    <g>
      <g>
        <path class="cls-2" d="m34,87.31c-.74,0-1.49-.11-2.22-.34-2.01-.61-3.54-1.87-4.53-3.75-.97-1.84-2.4-4.61-4.28-8.31-1.87-3.68-3.29-6.43-4.26-8.26L3.17,36.95c-1.03-1.96-1.39-4.09-1.05-6.32.48-3.01,2.27-5.25,5.19-6.51,9.35-4.07,9.53-4.13,9.68-4.18,3.77-1.44,7.38-2.2,10.65-2.24.39,0,.8-.01,1.19-.01,13.32,0,22.27,4.17,26.6,12.4,1.92,3.64,2.37,7.56,1.36,11.65-.73,2.93-2.24,5.99-4.51,9.11,6.83.44,12.61,1.56,17.21,3.34,1.83.7,3.19,1.89,4.05,3.53.98,1.86,1.13,3.85.45,5.92-.67,2.03-1.97,3.57-3.86,4.56-1.09.57-2.28.87-3.52.87-.77,0-1.57-.11-2.38-.33-6.51-1.79-12.97-2.7-19.19-2.7-3.09,0-6.18.22-9.21.67,4.18,7.28,5.01,8.77,5.26,9.23.99,1.88,1.17,3.85.53,5.85-.63,2-1.94,3.53-3.89,4.55-1.21.64-2.47.96-3.73.96Zm-6.01-35.88c5.6-2.96,9.4-5.84,11.3-8.56.79-1.12,1.41-2.39,1.83-3.78.34-1.13.38-1.65.37-1.83-1.16-2.06-3.8-3.41-7.85-4.01-1.25-.18-2.5-.27-3.7-.27-2.78,0-5.43.5-7.88,1.49-.11.04-.53.22-2.44,1.07l8.36,15.89Z"/>
        <path class="cls-1" d="m28.83,19.69c12.57,0,20.85,3.78,24.83,11.34,1.69,3.21,2.08,6.62,1.19,10.24s-3.09,7.42-6.59,11.42c8.4.21,15.23,1.34,20.5,3.38,1.37.53,2.38,1.39,3.01,2.59.72,1.37.83,2.82.32,4.36-.51,1.53-1.47,2.67-2.89,3.42-.8.42-1.67.64-2.59.64-.59,0-1.21-.09-1.86-.26-6.71-1.85-13.28-2.77-19.71-2.77-4.19,0-8.31.39-12.38,1.17,4.02,6.99,6.24,10.87,6.65,11.66.74,1.4.87,2.84.4,4.32-.47,1.48-1.44,2.61-2.91,3.39-.93.49-1.86.73-2.8.73-.55,0-1.09-.08-1.64-.25-1.49-.45-2.6-1.38-3.34-2.77-.97-1.84-2.39-4.6-4.27-8.29-1.88-3.69-3.3-6.45-4.27-8.29l-15.54-29.69c-.84-1.59-1.12-3.29-.85-5.09.37-2.32,1.71-3.98,4-4.97,6.18-2.69,9.36-4.06,9.52-4.12,3.65-1.39,7-2.1,10.04-2.14.39,0,.78-.01,1.17-.01m-1.7,34.4c.62-.3,1.17-.57,1.64-.81,6-3.16,10.05-6.25,12.16-9.26.91-1.29,1.61-2.74,2.1-4.34.49-1.6.59-2.67.3-3.21-1.44-2.74-4.58-4.47-9.39-5.19-1.36-.2-2.69-.29-3.99-.29-3.06,0-5.93.55-8.63,1.64-.21.08-1.69.74-4.45,1.97l10.27,19.51m1.7-38.4c-.41,0-.82,0-1.24.01-3.48.04-7.32.85-11.39,2.4h0c-.4.16-1.83.76-9.69,4.19C2.94,23.83.74,26.6.15,30.3c-.41,2.69.02,5.23,1.26,7.59l15.53,29.68c.95,1.8,2.38,4.57,4.25,8.25,1.87,3.68,3.32,6.48,4.29,8.33,1.23,2.34,3.21,3.98,5.71,4.74.92.28,1.87.42,2.8.42,1.59,0,3.15-.4,4.66-1.19,2.39-1.26,4.07-3.23,4.86-5.71.79-2.5.56-5.06-.67-7.4-.22-.41-.88-1.6-3.79-6.68,1.98-.19,3.98-.29,5.98-.29,6.04,0,12.32.88,18.65,2.63.99.27,1.97.41,2.92.41,1.57,0,3.07-.37,4.45-1.1,2.33-1.23,4-3.2,4.83-5.71.85-2.56.64-5.14-.58-7.47-1.08-2.05-2.84-3.59-5.11-4.46-3.99-1.55-8.81-2.61-14.4-3.19,1.39-2.35,2.37-4.66,2.93-6.92,1.14-4.58.62-8.98-1.53-13.06-4.71-8.94-14.25-13.47-28.37-13.47h0Zm-6.44,20.81c.26-.11.36-.15.39-.17,2.24-.9,4.64-1.36,7.16-1.36,1.1,0,2.25.09,3.42.25,2.11.31,4.78,1.01,6.04,2.52-.04.19-.11.44-.2.76-.36,1.18-.88,2.26-1.54,3.2-1.08,1.55-3.48,3.94-8.85,6.99l-6.42-12.2h0Z"/>
      </g>
      <g>
        <path class="cls-2" d="m88.31,63.08c-1.71,0-3.37-.23-4.92-.67-4-1.2-6.91-3.77-8.68-7.65-2.91-6.41-5.13-12.35-6.6-17.65-.98-3.55-1.7-7.75-2.14-12.5-.39-4.11,1.6-6.99,5.61-8.11.78-.22,1.56-.33,2.31-.33,1.2,0,2.36.27,3.46.81,1.87.91,3.15,2.46,3.71,4.48.35,1.27.68,3.21,1,5.95.29,2.48.61,4.35.94,5.54,1.02,3.67,2.04,6.87,3.04,9.52.81,2.16,1.63,3.98,2.42,5.44.22.01.44.02.65.02h.21c.5-.01.97-.08,1.4-.2,2.38-.66,4.93-1.69,7.58-3.07-.46-1.65-.98-3.46-1.55-5.43-.92-3.11-1.57-5.35-1.95-6.72-1.53-5.53-2.62-10.45-3.22-14.62-.63-4.3,1.35-7.31,5.57-8.48.79-.22,1.58-.33,2.34-.33,1.21,0,2.4.27,3.51.82,1.94.94,3.21,2.55,3.67,4.66,1.07,4.77,1.87,8.36,2.4,10.76.37,1.68.6,2.74.72,3.44h0c.49,1.78,1.25,4.47,2.28,8.05,1.03,3.6,1.79,6.3,2.29,8.09.14.5.4,1.28.78,2.3.43,1.15.72,2.01.89,2.62.56,2.03.27,4.02-.83,5.76-1.08,1.7-2.67,2.85-4.73,3.42-.75.21-1.5.32-2.21.32-1.52,0-2.92-.46-4.16-1.37-2.89,1.87-6.04,3.29-9.38,4.21-2.23.62-4.38.93-6.4.93Z"/>
        <path class="cls-1" d="m99.48,11.08c.91,0,1.79.21,2.64.62,1.39.68,2.26,1.77,2.59,3.29,2.15,9.58,3.21,14.38,3.17,14.38,0,0-.01-.03-.03-.08,0,0,0,0,0,0,0,0,0,0,0,0,.5,1.79,1.26,4.48,2.28,8.07,1.03,3.59,1.79,6.28,2.28,8.07.16.56.43,1.38.83,2.46.4,1.08.68,1.9.83,2.46.41,1.49.22,2.88-.59,4.15-.81,1.27-2,2.13-3.58,2.56-.58.16-1.14.24-1.68.24-1.51,0-2.84-.63-3.99-1.9-3.07,2.2-6.43,3.81-10.08,4.82-2.07.57-4.02.86-5.86.86-1.53,0-2.99-.2-4.36-.6-3.42-1.02-5.89-3.21-7.42-6.56-2.88-6.34-5.04-12.13-6.5-17.36-.96-3.45-1.65-7.5-2.08-12.15-.3-3.15,1.09-5.14,4.15-6,.61-.17,1.2-.25,1.78-.25.9,0,1.76.2,2.58.6,1.36.66,2.25,1.74,2.66,3.22.32,1.17.64,3.05.94,5.64.3,2.6.64,4.54,1,5.84,1.04,3.73,2.07,6.96,3.1,9.69,1.03,2.72,2.05,4.93,3.06,6.62.66.09,1.28.14,1.88.14.08,0,.17,0,.25,0,.67-.01,1.3-.1,1.89-.27,2.96-.82,6.1-2.15,9.41-3.99-.57-2.05-1.23-4.38-1.98-6.99-.92-3.11-1.57-5.34-1.94-6.7-1.52-5.47-2.57-10.26-3.17-14.38-.48-3.29.89-5.38,4.12-6.27.62-.17,1.22-.26,1.81-.26m0-4h0c-.95,0-1.92.14-2.88.4-5.16,1.43-7.78,5.43-7.01,10.7.62,4.26,1.72,9.26,3.27,14.87.39,1.41,1.05,3.69,1.96,6.77.39,1.36.75,2.62,1.09,3.8-2,.95-3.93,1.69-5.75,2.19-.16.04-.32.07-.5.1-.58-1.18-1.17-2.56-1.76-4.14-.98-2.59-1.98-5.73-2.98-9.35-.21-.75-.53-2.27-.88-5.24-.33-2.84-.68-4.88-1.06-6.25-.72-2.59-2.37-4.58-4.76-5.75-1.38-.67-2.83-1.01-4.34-1.01-.94,0-1.9.13-2.85.4-4.9,1.36-7.55,5.18-7.07,10.23.45,4.86,1.19,9.18,2.2,12.84,1.5,5.4,3.76,11.44,6.71,17.94,2.03,4.43,5.36,7.37,9.91,8.73,1.77.51,3.61.76,5.51.76,2.19,0,4.53-.34,6.93-1.01,3.13-.87,6.1-2.14,8.86-3.79,1.28.67,2.68,1.02,4.15,1.02.9,0,1.82-.13,2.75-.39,2.51-.7,4.55-2.17,5.88-4.27,1.42-2.23,1.79-4.78,1.07-7.36-.19-.67-.49-1.58-.94-2.78-.45-1.21-.65-1.83-.73-2.14-.5-1.79-1.26-4.49-2.29-8.1-.98-3.42-1.71-6.01-2.2-7.79-.05-.29-.11-.57-.17-.85-.13-.61-.33-1.52-.6-2.73-.53-2.4-1.33-5.99-2.4-10.77-.6-2.71-2.24-4.79-4.75-6.01-1.39-.68-2.87-1.02-4.39-1.02h0Z"/>
      </g>
      <g>
        <path class="cls-2" d="m125.82,55.79c-1.88,0-3.54-.59-4.93-1.75-1.58-1.32-2.47-3.09-2.64-5.23-.06-.72-.23-1.84-.5-3.34-.31-1.66-.49-2.89-.56-3.75-.22-2.75-.32-6.6-.31-11.46,0-4.76-.09-8.51-.3-11.14-.06-.79-.21-2.02-.43-3.65-.23-1.68-.38-2.97-.45-3.83-.17-2.12.49-4.04,1.9-5.55,1.38-1.49,3.17-2.33,5.3-2.5.28-.02.55-.03.81-.03,1.99,0,5.16.67,6.79,4.54,3.38-3.08,7.09-4.79,11.05-5.1.52-.04,1.03-.06,1.52-.06,5.28,0,9.22,2.28,11.71,6.77,1.71,3.1,2.78,7.61,3.27,13.78l.23,2.94c.07,1.29.13,2.18.17,2.69.16,2.03.66,4.69,1.49,7.91.89,3.45,1.42,6.32,1.6,8.55.16,2.09-.48,3.99-1.88,5.5-1.37,1.48-3.15,2.32-5.29,2.49-.31.02-.61.04-.9.04-3.92,0-6.5-2.2-7.29-6.21-.6-2.77-1.21-5.6-1.83-8.44-.67-3.08-1.12-6.03-1.34-8.78-.06-.77-.11-2.05-.15-3.81-.04-1.71-.09-2.92-.14-3.58-.02-.21-.03-.75-.04-1.62,0-.74-.03-1.34-.06-1.79-.06-.71-.15-1.15-.23-1.41-1.52.32-3.08,1.7-4.61,4.12-1.86,2.95-3.24,6.67-4.11,11.08.02.96,0,2.19-.06,3.66-.05,1.21-.03,2.39.06,3.52.07.87.07,2.12.02,3.83-.05,1.53-.05,2.66,0,3.38.17,2.16-.44,4.05-1.81,5.61-1.36,1.55-3.15,2.42-5.34,2.59-.25.02-.5.03-.74.03Z"/>
        <path class="cls-1" d="m143.07,4.94c4.52,0,7.84,1.91,9.96,5.74,1.56,2.82,2.56,7.14,3.02,12.97l.23,2.94c.07,1.27.13,2.17.17,2.69.17,2.15.68,4.9,1.55,8.25.86,3.35,1.38,6.08,1.54,8.21.12,1.55-.33,2.87-1.35,3.98-1.02,1.11-2.35,1.73-3.98,1.85-.25.02-.5.03-.74.03-2.95,0-4.73-1.53-5.33-4.59-.61-2.81-1.22-5.64-1.83-8.48-.65-3-1.09-5.84-1.3-8.52-.06-.72-.11-1.95-.15-3.7-.04-1.75-.09-2.98-.15-3.7-.02-.19-.03-.69-.03-1.48,0-.79-.03-1.43-.07-1.93-.17-2.21-.78-3.31-1.81-3.31-.04,0-.08,0-.12,0-2.36.19-4.56,1.89-6.6,5.11-2.03,3.22-3.51,7.21-4.42,11.98.02.94,0,2.19-.05,3.76-.05,1.29-.03,2.53.06,3.75.06.79.07,1.99.01,3.61-.05,1.61-.05,2.81.01,3.6.13,1.61-.31,2.99-1.32,4.14-1.01,1.15-2.34,1.78-3.99,1.92-.2.02-.39.02-.58.02-1.41,0-2.62-.43-3.64-1.28-1.16-.97-1.8-2.25-1.93-3.86-.06-.79-.24-1.97-.53-3.54-.29-1.58-.47-2.76-.53-3.54-.21-2.7-.32-6.47-.31-11.3,0-4.84-.1-8.6-.31-11.3-.07-.84-.21-2.1-.44-3.76-.23-1.66-.37-2.9-.44-3.72-.12-1.57.33-2.92,1.37-4.03,1.04-1.11,2.37-1.74,4-1.86.22-.02.44-.03.65-.03,3.21,0,5.1,2.02,5.65,6.07l.08.45c3.71-4.37,7.8-6.74,12.27-7.09.47-.04.92-.06,1.36-.06m0-4c-.54,0-1.11.02-1.68.07-3.68.29-7.14,1.64-10.34,4.04-2.3-3.04-5.63-3.48-7.35-3.48-.32,0-.64.01-.97.04-2.61.21-4.9,1.29-6.61,3.13-1.8,1.94-2.64,4.38-2.43,7.07.07.91.22,2.2.46,3.95.22,1.59.36,2.78.42,3.53.2,2.58.3,6.27.3,10.98,0,4.91.1,8.82.32,11.62.07.93.26,2.22.58,3.96.33,1.78.44,2.68.48,3.13.21,2.66,1.37,4.95,3.35,6.61,1.73,1.45,3.88,2.21,6.21,2.21.29,0,.59-.01.89-.04,2.68-.21,4.99-1.34,6.68-3.26,1.72-1.96,2.51-4.41,2.3-7.09-.03-.44-.06-1.35,0-3.16.06-1.79.05-3.11-.02-4.05-.08-1.05-.1-2.14-.05-3.27.05-1.42.07-2.61.06-3.57.82-4.08,2.1-7.51,3.8-10.2.41-.64.82-1.2,1.22-1.67,0,.88.02,1.23.04,1.46.05.62.09,1.79.13,3.47.04,1.82.09,3.1.16,3.92.22,2.84.69,5.89,1.38,9.06.61,2.82,1.22,5.64,1.83,8.44.99,4.94,4.35,7.78,9.24,7.78.34,0,.7-.01,1.05-.04,2.62-.21,4.9-1.29,6.6-3.13,1.78-1.93,2.61-4.35,2.4-7.01-.19-2.38-.73-5.28-1.66-8.89-.8-3.11-1.28-5.65-1.43-7.57-.04-.5-.09-1.37-.16-2.61v-.04s0-.04,0-.04l-.23-2.94c-.51-6.46-1.66-11.23-3.51-14.58-2.84-5.11-7.49-7.81-13.46-7.81h0Z"/>
      </g>
      <g>
        <path class="cls-2" d="m198.12,57.18c-.34,0-.69-.02-1.04-.06-4.42-.5-6.85-3.21-6.86-7.62-.06-2.84-.12-5.73-.18-8.63-.07-3.14.05-6.13.36-8.88.09-.76.28-2.03.58-3.77.29-1.68.47-2.88.55-3.54.03-.22.11-.75.27-1.6.13-.72.23-1.32.28-1.77.08-.71.07-1.16.04-1.42-1.57.03-3.36,1.09-5.31,3.16-2.39,2.54-4.46,5.93-6.15,10.09-.17.94-.42,2.15-.75,3.58-.28,1.18-.49,2.34-.62,3.47-.1.86-.33,2.09-.71,3.76-.34,1.48-.55,2.6-.64,3.32-.25,2.15-1.2,3.89-2.85,5.16-1.36,1.05-2.94,1.58-4.7,1.58-.34,0-.68-.02-1.04-.06-2.18-.25-3.94-1.18-5.23-2.77-1.3-1.6-1.84-3.5-1.59-5.64.08-.71.13-1.84.14-3.37.02-1.69.07-2.93.17-3.79.31-2.73.94-6.54,1.88-11.31.92-4.68,1.53-8.38,1.83-10.99.09-.79.18-2.02.27-3.66.1-1.73.19-2.99.29-3.85.24-2.11,1.25-3.87,2.92-5.09,1.36-.99,2.93-1.5,4.64-1.5.34,0,.69.02,1.04.06,2.24.25,5.69,1.39,6.61,5.87,3.29-2,6.62-3,9.94-3,.62,0,1.26.04,1.88.11,5.94.67,9.98,3.83,11.7,9.11,1.09,3.38,1.28,8,.58,14.15l-.33,2.93c-.17,1.29-.29,2.16-.35,2.68-.23,2.02-.25,4.73-.05,8.05.21,3.55.19,6.48-.06,8.7-.24,2.08-1.24,3.82-2.89,5.03-1.36.99-2.91,1.5-4.63,1.5Z"/>
        <path class="cls-1" d="m174.67,4c.27,0,.54.02.81.05,3.6.41,5.28,2.79,5.04,7.13v.46c3.91-3.14,7.83-4.71,11.73-4.71.55,0,1.1.03,1.65.09,5.2.59,8.54,3.17,10.03,7.74.99,3.07,1.15,7.5.49,13.3l-.33,2.93c-.17,1.26-.29,2.16-.35,2.68-.24,2.15-.26,4.94-.06,8.39s.19,6.23-.05,8.35c-.17,1.54-.87,2.76-2.09,3.65-1.01.74-2.16,1.11-3.44,1.11-.27,0-.54-.02-.82-.05-3.38-.38-5.08-2.26-5.08-5.63-.06-2.88-.12-5.77-.18-8.67-.07-3.07.05-5.94.35-8.61.08-.71.27-1.93.56-3.66.29-1.72.48-2.94.56-3.66.02-.19.1-.68.25-1.46.14-.78.24-1.41.3-1.91.26-2.28-.16-3.49-1.26-3.61-.21-.02-.42-.04-.63-.04-2.17,0-4.44,1.26-6.82,3.79-2.61,2.77-4.82,6.41-6.63,10.91-.16.92-.41,2.15-.77,3.68-.3,1.25-.52,2.48-.65,3.69-.09.79-.31,1.97-.67,3.54-.36,1.57-.58,2.75-.67,3.54-.18,1.61-.88,2.88-2.08,3.81-1.01.78-2.16,1.17-3.48,1.17-.26,0-.53-.02-.81-.05-1.65-.19-2.95-.87-3.91-2.04s-1.34-2.56-1.16-4.15c.09-.78.14-1.98.16-3.58.01-1.6.07-2.79.16-3.58.31-2.69.92-6.41,1.85-11.15.93-4.75,1.55-8.46,1.85-11.15.1-.84.19-2.1.28-3.78.09-1.68.19-2.92.28-3.73.18-1.57.88-2.8,2.11-3.7,1.02-.74,2.18-1.11,3.47-1.11m0-4c-2.15,0-4.11.63-5.82,1.88-2.14,1.56-3.43,3.8-3.73,6.48-.1.89-.2,2.19-.3,3.96-.09,1.6-.18,2.8-.26,3.55-.29,2.56-.9,6.21-1.8,10.84-.94,4.82-1.58,8.68-1.9,11.47-.11.93-.17,2.23-.18,3.99-.02,1.82-.08,2.72-.13,3.16-.3,2.67.4,5.13,2.03,7.13,1.61,1.98,3.88,3.19,6.56,3.49.42.05.85.07,1.26.07,2.21,0,4.2-.67,5.92-2,2.06-1.59,3.31-3.85,3.61-6.52.05-.44.2-1.34.6-3.1.4-1.75.64-3.05.75-3.99.12-1.04.31-2.13.57-3.21.32-1.38.57-2.55.74-3.5,1.58-3.84,3.49-6.97,5.68-9.29.52-.55,1.03-1.02,1.51-1.4-.16.9-.21,1.23-.23,1.42-.05.45-.18,1.4-.53,3.45-.31,1.8-.5,3.07-.59,3.88-.32,2.83-.45,5.91-.38,9.15.06,2.89.12,5.77.18,8.63.03,5.37,3.25,8.95,8.63,9.56.42.05.85.07,1.27.07,2.15,0,4.1-.63,5.81-1.88,2.12-1.56,3.39-3.78,3.69-6.42.27-2.37.29-5.32.07-9.04-.19-3.2-.18-5.8.04-7.7.06-.5.17-1.37.34-2.59v-.04s.01-.04.01-.04l.33-2.93c.73-6.43.52-11.34-.66-14.98-1.98-6.1-6.61-9.72-13.38-10.49-.7-.08-1.41-.12-2.1-.12-2.97,0-5.92.71-8.84,2.13-1.37-2.81-3.95-4.58-7.48-4.98-.43-.05-.85-.07-1.27-.07h0Z"/>
      </g>
      <g>
        <path class="cls-2" d="m237.49,65.84c-3.43,0-6.89-.55-10.27-1.65-6.69-2.16-11.74-5.6-15.02-10.24-3.72-5.27-4.52-11.3-2.38-17.94,2.28-7.06,6.14-12.52,11.47-16.24,3.9-2.71,8.11-4.08,12.52-4.08,2.42,0,4.94.42,7.48,1.24,4.85,1.57,8.71,3.71,11.48,6.36,3.88,3.74,5.1,8.26,3.55,13.07-1.15,3.55-4.06,6.05-8.67,7.44-1.94.59-5.44,1.15-10.71,1.71l-12,1.25c.42.48.89.93,1.41,1.35,1.37,1.1,3.12,2,5.19,2.67,2.03.65,3.96.99,5.73.99,1,0,1.97-.1,2.89-.31,1.67-.38,3.08-.56,4.32-.56,1,0,1.86.12,2.62.36,3.76,1.22,5.3,4.14,4.11,7.83-1.23,3.82-4.83,6.04-10.68,6.6-1.01.09-2.03.14-3.04.14Zm-2.97-35.95c-1.08,0-2.11.24-3.15.73-.85.4-1.71.98-2.55,1.71,1.7-.16,3.39-.32,5.08-.48,1.91-.22,3.66-.46,5.24-.73-.66-.3-1.38-.58-2.16-.83-.84-.27-1.66-.41-2.46-.41Z"/>
        <path class="cls-1" d="m233.82,17.7c2.22,0,4.51.38,6.87,1.14,4.58,1.48,8.15,3.45,10.71,5.9,3.35,3.23,4.36,6.9,3.03,11.01-.94,2.9-3.38,4.94-7.35,6.14-1.81.55-5.26,1.1-10.34,1.64l-15.22,1.59c.82,1.78,2.02,3.3,3.59,4.56,1.57,1.26,3.51,2.27,5.83,3.02,2.24.72,4.35,1.08,6.34,1.08,1.15,0,2.26-.12,3.33-.36,1.51-.34,2.8-.51,3.88-.51.78,0,1.45.09,2,.27,2.74.88,3.68,2.66,2.82,5.32-.97,3-3.96,4.74-8.97,5.22-.95.09-1.9.13-2.85.13-3.24,0-6.46-.52-9.66-1.55-6.3-2.03-10.96-5.2-14-9.49-3.35-4.75-4.06-10.14-2.11-16.17,2.15-6.66,5.72-11.74,10.71-15.22,3.57-2.48,7.36-3.72,11.37-3.72m-9.85,17.13c3.39-.33,6.77-.65,10.13-.96,4.08-.46,7.39-1.03,9.94-1.72-1.44-1.57-3.59-2.81-6.43-3.73-1.04-.34-2.06-.5-3.07-.5-1.37,0-2.7.31-4,.93-2.27,1.07-4.45,3.07-6.56,6m9.85-21.13c-4.82,0-9.42,1.49-13.65,4.43-5.71,3.98-9.82,9.79-12.24,17.27-2.34,7.27-1.45,13.9,2.65,19.71,3.53,5,8.93,8.7,16.04,10.99,3.58,1.16,7.24,1.74,10.88,1.74,1.07,0,2.15-.05,3.22-.15,8.39-.8,11.38-4.78,12.41-7.98,1.53-4.74-.59-8.8-5.4-10.35-.96-.31-2.02-.46-3.23-.46-1.39,0-2.94.2-4.75.61-.78.18-1.6.26-2.45.26-1.56,0-3.28-.3-5.11-.89-.63-.2-1.23-.43-1.78-.68l6.76-.71c5.47-.58,9-1.15,11.1-1.79,6.56-1.97,9.05-5.84,9.99-8.73,1.8-5.58.4-10.81-4.06-15.12-2.99-2.87-7.11-5.17-12.26-6.83-2.74-.89-5.47-1.33-8.1-1.33h0Z"/>
      </g>
      <g>
        <path class="cls-2" d="m258.28,76.88c-1.32,0-2.63-.36-3.91-1.06-2-1.11-3.28-2.75-3.68-4.74-.39-1.74-.1-3.56.89-5.35l13.16-23.8c.42-.76,1.08-1.89,1.96-3.38.86-1.44,1.49-2.53,1.9-3.26.99-1.79,2.4-3.02,4.19-3.65.68-.24,1.39-.36,2.1-.36,1.23,0,2.49.35,3.75,1.05,2.64,1.46,3.99,3.65,3.96,6.31.53-.03,1.05-.04,1.57-.04,4.89,0,9.57,1.22,13.92,3.62,3.37,1.86,8.2,6.47,2.71,16.4-.71,1.28-1.18,2.1-1.44,2.52-1.91,3.02-4.22,4.55-6.87,4.55-1.27,0-2.59-.37-3.91-1.1-2.01-1.11-3.27-2.56-3.75-4.31-.47-1.72-.13-3.63.99-5.67l.77-1.57c-1.3-.31-2.57-.47-3.8-.47-2.89,0-5.58.84-8.19,2.55l-9.83,17.88c-1.04,1.87-2.57,3.09-4.55,3.62-.64.17-1.28.26-1.93.26Z"/>
        <path class="cls-1" d="m274.89,33.28c.89,0,1.82.27,2.78.8,2.69,1.49,3.53,3.75,2.51,6.79,1.35-.18,2.68-.28,3.98-.28,4.57,0,8.88,1.12,12.95,3.37,4.84,2.68,5.49,7.24,1.93,13.68-.68,1.24-1.14,2.04-1.38,2.42-1.53,2.41-3.25,3.62-5.18,3.62-.93,0-1.92-.28-2.95-.85-3.05-1.69-3.71-4.11-1.97-7.26l1.85-3.77c-2.28-.82-4.49-1.23-6.63-1.23-3.42,0-6.66,1.05-9.71,3.16l-10.07,18.3c-.76,1.38-1.87,2.26-3.32,2.65-.47.13-.94.19-1.41.19-.98,0-1.96-.27-2.94-.81-1.5-.83-2.4-1.96-2.69-3.38-.29-1.3-.06-2.63.69-3.99l13.16-23.8c.42-.75,1.06-1.86,1.93-3.32.87-1.46,1.52-2.57,1.93-3.32.75-1.36,1.78-2.27,3.1-2.73.47-.16.95-.25,1.44-.25m0-4c-.94,0-1.87.16-2.76.47-2.23.78-4.06,2.36-5.27,4.57-.39.71-1.02,1.79-1.87,3.21-.88,1.48-1.56,2.64-1.99,3.43l-13.16,23.81c-1.21,2.19-1.59,4.52-1.1,6.76.37,1.8,1.49,4.29,4.66,6.05,1.58.87,3.22,1.31,4.88,1.31.82,0,1.64-.11,2.44-.32,2.49-.67,4.49-2.25,5.78-4.58l9.59-17.43c2.15-1.32,4.35-1.96,6.69-1.96.26,0,.53,0,.8.03-.99,2.17-1.22,4.25-.69,6.2.62,2.29,2.2,4.15,4.71,5.53,1.62.9,3.27,1.35,4.88,1.35,2.32,0,5.69-.95,8.56-5.48.18-.28.53-.86,1.5-2.62,6.57-11.89-.25-17.33-3.49-19.12-4.59-2.54-9.52-3.84-14.68-3.87-.56-2.49-2.18-4.59-4.76-6.02-1.56-.86-3.15-1.3-4.72-1.3h0Z"/>
      </g>
    </g>
  </g>
</svg>